<svg width="19" height="19" viewBox="0 0 19 19" fill="none" xmlns="http://www.w3.org/2000/svg">
<path fill-rule="evenodd" clip-rule="evenodd" d="M14.7923 15.29C15.5594 14.6072 16.1706 13.7825 16.5879 12.8669C17.0053 11.9514 17.22 10.9645 17.2188 9.96729C17.2188 5.92853 13.7631 2.65479 9.50001 2.65479C5.23688 2.65479 1.78126 5.92853 1.78126 9.96729C1.78004 10.9645 1.99474 11.9514 2.41209 12.8669C2.82945 13.7825 3.44058 14.6072 4.20771 15.29C5.6382 16.5702 7.53219 17.2823 9.50001 17.2798C11.4678 17.2823 13.3618 16.5702 14.7923 15.29ZM4.8648 14.3263C5.42061 13.6675 6.12593 13.1358 6.92838 12.7707C7.73084 12.4056 8.6098 12.2164 9.50001 12.2173C10.3902 12.2164 11.2692 12.4056 12.0716 12.7707C12.8741 13.1358 13.5794 13.6675 14.1352 14.3263C13.5288 14.9066 12.8068 15.367 12.0112 15.6809C11.2155 15.9948 10.3619 16.1558 9.50001 16.1548C8.6381 16.1558 7.78454 15.9948 6.98886 15.6809C6.19317 15.367 5.47119 14.9066 4.8648 14.3263ZM12.4688 7.71729C12.4688 8.46321 12.156 9.17858 11.5992 9.70602C11.0425 10.2335 10.2874 10.5298 9.50001 10.5298C8.71264 10.5298 7.95753 10.2335 7.40078 9.70602C6.84403 9.17858 6.53126 8.46321 6.53126 7.71729C6.53126 6.97136 6.84403 6.25599 7.40078 5.72855C7.95753 5.2011 8.71264 4.90479 9.50001 4.90479C10.2874 4.90479 11.0425 5.2011 11.5992 5.72855C12.156 6.25599 12.4688 6.97136 12.4688 7.71729Z" fill="black"/>
</svg>
