<svg width="1410" height="661" viewBox="0 0 1410 661" fill="none" xmlns="http://www.w3.org/2000/svg">
<path d="M1508.15 607.346H769.911" stroke="black" stroke-opacity="0.03" stroke-width="8.48553"/>
<path d="M642.628 480.063H82.5833" stroke="black" stroke-opacity="0.03" stroke-width="8.48553"/>
<path d="M1508.15 344.294H551.409" stroke="black" stroke-opacity="0.03" stroke-width="8.48553"/>
<path d="M1520.88 480.063H564.137" stroke="black" stroke-opacity="0.03" stroke-width="8.48553"/>
<path d="M564.137 344.294H-87.1272" stroke="black" stroke-opacity="0.03" stroke-width="8.48553"/>
<path d="M163.196 34.5728V654.016" stroke="black" stroke-opacity="0.03" stroke-width="8.48553"/>
<path d="M298.964 153.37V660.38" stroke="black" stroke-opacity="0.03" stroke-width="8.48553"/>
<path d="M481.403 32.4513V480.063" stroke="black" stroke-opacity="0.03" stroke-width="8.48553"/>
<path d="M1499.67 191.555H44.3985" stroke="black" stroke-opacity="0.03" stroke-width="8.48553"/>
<path d="M956.593 60.0293V475.82" stroke="black" stroke-opacity="0.03" stroke-width="8.48553"/>
<path d="M774.154 191.555V607.346" stroke="black" stroke-opacity="0.03" stroke-width="8.48553"/>
<path d="M1334.2 0.630615V658.259" stroke="black" stroke-opacity="0.03" stroke-width="8.48553"/>
<path d="M1147.52 195.794V641.284" stroke="black" stroke-opacity="0.03" stroke-width="8.48553"/>
<path d="M1147.52 359.144C1139.32 359.144 1132.67 352.496 1132.67 344.294C1132.67 336.093 1139.32 329.445 1147.52 329.445C1155.72 329.445 1162.37 336.093 1162.37 344.294C1162.37 352.496 1155.72 359.144 1147.52 359.144Z" fill="#DDDDDD"/>
<path d="M1334.12 206.405C1325.91 206.405 1319.27 199.756 1319.27 191.555C1319.27 183.354 1325.91 176.705 1334.12 176.705C1342.32 176.705 1348.97 183.354 1348.97 191.555C1348.97 199.756 1342.32 206.405 1334.12 206.405Z" fill="#DDDDDD"/>
<path d="M1334.31 622.195C1326.11 622.195 1319.46 615.547 1319.46 607.346C1319.46 599.145 1326.11 592.496 1334.31 592.496C1342.52 592.496 1349.16 599.145 1349.16 607.346C1349.16 615.547 1342.52 622.195 1334.31 622.195Z" fill="#DDDDDD"/>
<path d="M163.196 206.405C154.994 206.405 148.346 199.756 148.346 191.555C148.346 183.354 154.994 176.705 163.196 176.705C171.397 176.705 178.045 183.354 178.045 191.555C178.045 199.756 171.397 206.405 163.196 206.405Z" fill="#DDDDDD"/>
<path d="M298.964 359.144C290.763 359.144 284.114 352.496 284.114 344.294C284.114 336.093 290.763 329.445 298.964 329.445C307.165 329.445 313.814 336.093 313.814 344.294C313.814 352.496 307.165 359.144 298.964 359.144Z" fill="#DDDDDD"/>
</svg>
