<svg width="50" height="39" viewBox="0 0 50 39" fill="none" xmlns="http://www.w3.org/2000/svg">
<path d="M28.2875 38.922V27.2311C28.2875 19.8904 30.0094 13.909 33.4532 9.28706C36.9877 4.57447 42.1987 1.49316 49.0863 0.0431411V8.87923C46.005 9.60425 43.5581 10.9636 41.7456 12.9574C39.933 14.8606 38.7549 17.1716 38.2111 19.8904H46.3675V38.922H28.2875ZM0.827646 38.922V27.2311C0.827646 19.8904 2.54955 13.909 5.99336 9.28706C9.5278 4.57447 14.6935 1.49316 21.4905 0.0431411V8.87923C18.4092 9.60425 15.9623 10.9636 14.1498 12.9574C12.3372 14.8606 11.1591 17.1716 10.6153 19.8904H18.7717V38.922H0.827646Z" fill="#F2F2F2"/>
</svg>
