<svg width="24" height="25" viewBox="0 0 24 25" fill="none" xmlns="http://www.w3.org/2000/svg">
<path d="M12 9.68799V15.688M15 12.688H9M21 12.688C21 13.8699 20.7672 15.0402 20.3149 16.1321C19.8626 17.2241 19.1997 18.2162 18.364 19.0519C17.5282 19.8877 16.5361 20.5506 15.4442 21.0029C14.3522 21.4552 13.1819 21.688 12 21.688C10.8181 21.688 9.64778 21.4552 8.55585 21.0029C7.46392 20.5506 6.47177 19.8877 5.63604 19.0519C4.80031 18.2162 4.13738 17.2241 3.68508 16.1321C3.23279 15.0402 3 13.8699 3 12.688C3 10.301 3.94821 8.01185 5.63604 6.32403C7.32387 4.6362 9.61305 3.68799 12 3.68799C14.3869 3.68799 16.6761 4.6362 18.364 6.32403C20.0518 8.01185 21 10.301 21 12.688Z" stroke="black" stroke-width="1.5" stroke-linecap="round" stroke-linejoin="round"/>
</svg>
