<svg width="348" height="143" viewBox="0 0 348 143" fill="none" xmlns="http://www.w3.org/2000/svg">
<path fill-rule="evenodd" clip-rule="evenodd" d="M163.996 93.3856C163.996 97.9127 160.134 101.583 155.372 101.583H119.971V101.551H94.9308C94.5722 101.551 94.215 101.562 93.8605 101.583H93.3446V101.62C84.5625 102.381 77.6839 109.399 77.6839 117.945L77.6825 126.635H77.6977C77.477 130.976 73.7048 134.43 69.0837 134.43H0.206543V142.627H69.0837C78.6094 142.627 86.3308 135.288 86.3308 126.234L86.3322 117.544H86.3184C86.5267 113.442 89.9046 110.132 94.175 109.78H155.372C164.897 109.78 172.619 102.439 172.619 93.3856L172.621 84.696L163.996 84.6957V93.3856Z" fill="url(#paint0_linear_1_3391)"/>
<path fill-rule="evenodd" clip-rule="evenodd" d="M220.217 16.757C219.996 12.3999 216.213 8.93186 211.577 8.93186H185.086V8.78593H184.406C179.629 8.78593 175.756 12.4698 175.756 17.0142V31.255L167.104 31.2547L167.105 17.0142C167.105 7.92552 174.851 0.557495 184.406 0.557495H205.402V0.703427H211.577C221.131 0.703427 228.878 8.07145 228.878 17.1603L228.879 25.8834H228.864C229.084 30.2405 232.869 33.7085 237.504 33.7085H261.22V33.6786H282.216C286.992 33.6786 290.865 29.9946 290.865 25.4501V16.7268L299.518 16.7271L299.516 25.4501C299.516 34.539 291.77 41.907 282.216 41.907H262.621V41.9369H237.504C227.949 41.9369 220.203 34.5689 220.203 25.4802L220.202 16.757H220.217Z" fill="url(#paint1_linear_1_3391)"/>
<path fill-rule="evenodd" clip-rule="evenodd" d="M47.4525 43.7304C47.4525 48.2574 51.3135 51.9272 56.0763 51.9272H91.4771V51.8962H116.517C116.876 51.8962 117.233 51.9067 117.588 51.9272H118.103V51.9647C126.885 52.7263 133.764 59.7446 133.764 68.2899L133.765 76.9796H133.75C133.971 81.32 137.743 84.7748 142.364 84.7748H211.242V92.9716H142.364C132.839 92.9716 125.117 85.6319 125.117 76.5779L125.116 67.8882H125.13C124.921 63.7871 121.543 60.4768 117.273 60.1242H56.0763C46.5507 60.1242 38.8289 52.7845 38.8289 43.7304L38.8273 35.0407L47.4525 35.0404V43.7304Z" fill="url(#paint2_linear_1_3391)"/>
<path d="M339.176 85.7497C339.176 81.2689 335.319 77.6364 330.561 77.6364H193.311V69.5233H330.561C340.077 69.5233 347.792 76.7882 347.792 85.7497L347.794 94.3507L339.176 94.351V85.7497Z" fill="url(#paint3_linear_1_3391)"/>
<path d="M213.879 89.8534C213.883 90.0281 213.88 90.2019 213.872 90.375C213.755 92.9697 212.383 95.3579 210.193 96.7425L178.824 116.564C176.441 118.068 173.422 118.158 170.972 116.786L138.579 98.6556C136.005 97.215 134.103 94.4984 134.12 91.7439V91.7359V55.42C134.12 55.4187 134.12 55.4174 134.12 55.4162C134.139 52.6571 135.579 50.1054 137.907 48.6823L137.919 48.6751L168.817 29.3147C171.185 27.8705 174.151 27.8064 176.563 29.157L176.571 29.1608L209.698 47.4247C209.7 47.4254 209.701 47.426 209.702 47.4267C212.098 48.7699 213.62 51.3266 213.68 54.1121C213.68 54.115 213.68 54.1179 213.68 54.1209L213.878 89.8355L213.879 89.8445V89.8534Z" fill="#18181B" stroke="url(#paint4_linear_1_3391)" stroke-width="2"/>
<path d="M187.125 76.9088V72.3151C187.125 70.7486 186.503 69.2464 185.395 68.1387C184.288 67.0311 182.785 66.4088 181.219 66.4088H178.594C178.072 66.4088 177.571 66.2014 177.202 65.8322C176.833 65.463 176.625 64.9622 176.625 64.4401V61.8151C176.625 60.2486 176.003 58.7464 174.895 57.6387C173.788 56.5311 172.285 55.9088 170.719 55.9088H167.438M171.375 55.9088H162.844C161.757 55.9088 160.875 56.7908 160.875 57.8776V88.0651C160.875 89.1518 161.757 90.0338 162.844 90.0338H185.156C186.243 90.0338 187.125 89.1518 187.125 88.0651V71.6588C187.125 67.4817 185.466 63.4756 182.512 60.5219C179.558 57.5682 175.552 55.9088 171.375 55.9088Z" stroke="url(#paint5_linear_1_3391)" stroke-width="3" stroke-linecap="round" stroke-linejoin="round"/>
<defs>
<linearGradient id="paint0_linear_1_3391" x1="122.367" y1="98.0037" x2="8.73029" y2="139.889" gradientUnits="userSpaceOnUse">
<stop stop-color="#3F3F46"/>
<stop offset="0.541667" stop-color="#3F3F46"/>
<stop offset="0.973958" stop-color="#3F3F46" stop-opacity="0"/>
</linearGradient>
<linearGradient id="paint1_linear_1_3391" x1="182.552" y1="33.8746" x2="302.141" y2="9.89724" gradientUnits="userSpaceOnUse">
<stop stop-color="#3F3F46"/>
<stop offset="0.541667" stop-color="#3F3F46"/>
<stop offset="0.973958" stop-color="#3F3F46" stop-opacity="0"/>
</linearGradient>
<linearGradient id="paint2_linear_1_3391" x1="115.812" y1="72.6169" x2="36.2159" y2="43.3621" gradientUnits="userSpaceOnUse">
<stop stop-color="#3F3F46"/>
<stop offset="0.541667" stop-color="#3F3F46"/>
<stop offset="0.973958" stop-color="#3F3F46" stop-opacity="0"/>
</linearGradient>
<linearGradient id="paint3_linear_1_3391" x1="278.816" y1="78.2468" x2="329.715" y2="117.358" gradientUnits="userSpaceOnUse">
<stop stop-color="#3F3F46"/>
<stop offset="0.541667" stop-color="#3F3F46"/>
<stop offset="0.973958" stop-color="#3F3F46" stop-opacity="0"/>
</linearGradient>
<linearGradient id="paint4_linear_1_3391" x1="133.699" y1="55.1813" x2="215.106" y2="95.4916" gradientUnits="userSpaceOnUse">
<stop stop-color="#3FD7FF"/>
<stop offset="1" stop-color="#003644"/>
</linearGradient>
<linearGradient id="paint5_linear_1_3391" x1="160.875" y1="55.9088" x2="187.125" y2="91.5895" gradientUnits="userSpaceOnUse">
<stop stop-color="#32B5D8"/>
<stop offset="1" stop-color="#023A48"/>
</linearGradient>
</defs>
</svg>
