<svg width="62" height="70" viewBox="0 0 62 70" fill="none" xmlns="http://www.w3.org/2000/svg">
<path d="M60.9988 47.913C61.0015 48.0443 60.9997 48.1751 60.9932 48.3053C60.9055 50.2572 59.8735 52.0537 58.2259 53.0953L34.6285 68.0057C32.8359 69.1373 30.5651 69.2047 28.7217 68.1727L4.35453 54.5344C2.41793 53.4507 0.987164 51.4072 1.00009 49.3351V49.3291V22.0105C1.00009 22.0095 1.00009 22.0086 1.00009 22.0077C1.01486 19.9321 2.09762 18.0126 3.84868 16.9421L3.85791 16.9367L27.1008 2.37283C28.8824 1.28647 31.1134 1.23829 32.9282 2.25422L32.9337 2.25708L57.8539 15.9961C57.8548 15.9966 57.8557 15.9971 57.8566 15.9975C59.6594 17.008 60.804 18.9312 60.8492 21.0266C60.8492 21.0288 60.8492 21.031 60.8492 21.0333L60.9978 47.8995L60.9988 47.9062V47.913Z" fill="#18181B" stroke="url(#paint0_linear_1_3457)" stroke-width="2"/>
<g clip-path="url(#clip0_1_3457)">
<path d="M33.3924 26.8135C32.6171 26.601 31.8122 26.4932 31 26.4932C26.0204 26.4932 21.9693 30.5444 21.9693 35.5239C21.9693 40.5035 26.0204 44.5546 31 44.5546C35.9796 44.5546 40.0307 40.5035 40.0307 35.5239C40.0307 34.7117 39.9229 33.9068 39.7104 33.1315C39.5644 32.5989 39.8779 32.0487 40.4105 31.9027C40.9428 31.7568 41.4932 32.0702 41.6392 32.6028C41.8995 33.5547 42.0312 34.5371 42.0307 35.5239C42.0307 41.6062 37.0823 46.5546 31 46.5546C24.9177 46.5546 19.9693 41.6062 19.9693 35.5239C19.9693 29.4416 24.9177 24.4932 31 24.4932C31.9908 24.4932 32.9736 24.6249 33.9211 24.8847C34.3653 25.0064 34.6571 25.4093 34.657 25.8487C34.6569 25.9381 34.6449 26.0272 34.6212 26.1134C34.4753 26.6461 33.9252 26.9597 33.3924 26.8135ZM45.1011 30.3014C44.5716 30.4582 44.2693 31.0146 44.4261 31.5442C44.8069 32.8304 45 34.1694 45 35.5239C45 43.2436 38.7196 49.5239 31 49.5239C23.2804 49.5239 17 43.2436 17 35.5239C17 27.8043 23.2804 21.5239 31 21.5239C32.3546 21.5239 33.6936 21.717 34.9796 22.0977C35.5092 22.2546 36.0655 21.9522 36.2223 21.4227C36.2503 21.3281 36.2637 21.2326 36.2637 21.1387C36.2638 20.7071 35.9823 20.3088 35.5473 20.18C34.0768 19.7446 32.5469 19.5239 31 19.5239C26.7262 19.5239 22.7083 21.1882 19.6863 24.2102C16.6643 27.2322 15 31.2502 15 35.5239C15 39.7977 16.6643 43.8157 19.6863 46.8377C22.7082 49.8597 26.7262 51.5239 31 51.5239C35.2738 51.5239 39.2917 49.8596 42.3137 46.8377C45.3357 43.8157 47 39.7977 47 35.5239C47 33.9771 46.7793 32.4471 46.3439 30.9764C46.1871 30.4469 45.6306 30.1449 45.1011 30.3014ZM31 31.5239C31.1471 31.5239 31.2956 31.5321 31.4414 31.5481C31.9907 31.6085 32.4844 31.2121 32.5445 30.6631C32.6047 30.1141 32.2086 29.6202 31.6596 29.5601C31.4405 29.536 31.2203 29.524 31 29.5239C27.6916 29.5239 25 32.2155 25 35.5239C25 38.8324 27.6916 41.5239 31 41.5239C34.3084 41.5239 37 38.8324 37 35.5239C37 34.9716 36.5523 34.5239 36 34.5239C35.4477 34.5239 35 34.9716 35 35.5239C35 37.7296 33.2056 39.5239 31 39.5239C28.7944 39.5239 27 37.7296 27 35.5239C27 33.3183 28.7944 31.5239 31 31.5239ZM36.1059 29.004L36.604 24.0073C36.6269 23.7775 36.7286 23.5627 36.8919 23.3994L40.4746 19.8168C40.6098 19.6817 40.7808 19.5881 40.9675 19.5472C41.1541 19.5062 41.3486 19.5196 41.5279 19.5858C41.7072 19.652 41.8638 19.7681 41.9791 19.9205C42.0944 20.0729 42.1637 20.2551 42.1787 20.4456L42.4627 24.0612L46.0783 24.3452C46.2688 24.3602 46.4511 24.4294 46.6035 24.5448C46.7559 24.6601 46.872 24.8167 46.9382 24.996C47.0044 25.1753 47.0178 25.3698 46.9768 25.5565C46.9359 25.7431 46.8423 25.9142 46.7071 26.0493L43.1245 29.6319C42.9612 29.7952 42.7464 29.8969 42.5166 29.9198L37.5201 30.4182L31.7071 36.2311C31.6144 36.324 31.5041 36.3978 31.3828 36.448C31.2614 36.4983 31.1313 36.5241 31 36.5239C30.8687 36.5241 30.7386 36.4983 30.6172 36.448C30.4959 36.3978 30.3857 36.324 30.2929 36.231C29.9024 35.8405 29.9024 35.2073 30.2929 34.8168L36.1059 29.004ZM38.1817 28.3423L41.9627 27.9652L43.7587 26.1692L41.4544 25.9882C41.217 25.9696 40.9941 25.8668 40.8257 25.6984C40.6573 25.53 40.5545 25.307 40.5358 25.0696L40.3548 22.7652L38.5588 24.5612L38.1817 28.3423Z" fill="url(#paint1_linear_1_3457)"/>
</g>
<defs>
<linearGradient id="paint0_linear_1_3457" x1="0.683473" y1="21.831" x2="61.9218" y2="52.1543" gradientUnits="userSpaceOnUse">
<stop stop-color="#FF3FE0"/>
<stop offset="1" stop-color="#44002D"/>
</linearGradient>
<linearGradient id="paint1_linear_1_3457" x1="31" y1="19.5239" x2="31" y2="51.5239" gradientUnits="userSpaceOnUse">
<stop stop-color="#D732BA"/>
<stop offset="1" stop-color="#56063E"/>
</linearGradient>
<clipPath id="clip0_1_3457">
<rect width="32" height="32" fill="white" transform="translate(15 19.5239)"/>
</clipPath>
</defs>
</svg>
