<svg width="62" height="70" viewBox="0 0 62 70" fill="none" xmlns="http://www.w3.org/2000/svg">
<path d="M60.9988 47.913C61.0016 48.0443 60.9997 48.1751 60.9933 48.3053C60.9056 50.2572 59.8736 52.0537 58.2259 53.0953L34.6285 68.0057C32.8359 69.1373 30.5652 69.2047 28.7218 68.1727L4.35459 54.5344C2.41799 53.4507 0.987225 51.4072 1.00015 49.3351V49.3291V22.0105C1.00015 22.0095 1.00015 22.0086 1.00015 22.0077C1.01492 19.9321 2.09768 18.0126 3.84874 16.9421L3.85797 16.9367L27.1009 2.37283C28.8824 1.28647 31.1135 1.23829 32.9282 2.25422L32.9338 2.25708L57.8539 15.9961C57.8548 15.9966 57.8558 15.9971 57.8567 15.9975C59.6595 17.008 60.8041 18.9312 60.8493 21.0266C60.8493 21.0288 60.8493 21.031 60.8493 21.0333L60.9979 47.8995L60.9988 47.9062V47.913Z" fill="#18181B" stroke="url(#paint0_linear_1_3477)" stroke-width="2"/>
<g clip-path="url(#clip0_1_3477)">
<path d="M38.3334 47.2135C38.2021 47.2138 38.072 47.188 37.9506 47.1377C37.8293 47.0873 37.7192 47.0134 37.6267 46.9201L34.6267 43.9201C34.5338 43.8272 34.4602 43.717 34.4099 43.5956C34.3596 43.4742 34.3337 43.3441 34.3337 43.2128C34.3337 43.0814 34.3596 42.9513 34.4099 42.83C34.4602 42.7086 34.5338 42.5983 34.6267 42.5054C34.7196 42.4126 34.8299 42.3389 34.9513 42.2886C35.0726 42.2383 35.2027 42.2125 35.3341 42.2125C35.4654 42.2125 35.5955 42.2383 35.7169 42.2886C35.8382 42.3389 35.9485 42.4126 36.0414 42.5054L38.3347 44.7988L40.6281 42.5054C40.8157 42.3179 41.0701 42.2125 41.3354 42.2125C41.6007 42.2125 41.8551 42.3179 42.0427 42.5054C42.2303 42.693 42.3357 42.9475 42.3357 43.2128C42.3357 43.4781 42.2303 43.7325 42.0427 43.9201L39.0427 46.9201C38.9496 47.0132 38.839 47.087 38.7172 47.1373C38.5955 47.1877 38.4651 47.2135 38.3334 47.2135Z" fill="url(#paint1_linear_1_3477)"/>
<path d="M38.3334 46.5468C38.0682 46.5468 37.8138 46.4414 37.6263 46.2539C37.4387 46.0664 37.3334 45.812 37.3334 45.5468V38.8801C37.3334 38.6149 37.4387 38.3606 37.6263 38.173C37.8138 37.9855 38.0682 37.8801 38.3334 37.8801C38.5986 37.8801 38.8529 37.9855 39.0405 38.173C39.228 38.3606 39.3334 38.6149 39.3334 38.8801V45.5468C39.3334 45.812 39.228 46.0664 39.0405 46.2539C38.8529 46.4414 38.5986 46.5468 38.3334 46.5468Z" fill="url(#paint2_linear_1_3477)"/>
<path d="M38.3334 51.2135C33.5547 51.2135 29.6667 47.3255 29.6667 42.5468C29.6667 37.7681 33.5547 33.8801 38.3334 33.8801C43.1121 33.8801 47.0001 37.7681 47.0001 42.5468C47.0001 47.3255 43.1121 51.2135 38.3334 51.2135ZM38.3334 35.8801C34.6574 35.8801 31.6667 38.8708 31.6667 42.5468C31.6667 46.2228 34.6574 49.2135 38.3334 49.2135C42.0094 49.2135 45.0001 46.2228 45.0001 42.5468C45.0001 38.8708 42.0094 35.8801 38.3334 35.8801Z" fill="url(#paint3_linear_1_3477)"/>
<path d="M28.6801 51.2134H18.6667C17.6945 51.2127 16.7623 50.8262 16.0748 50.1387C15.3873 49.4512 15.0008 48.519 15.0001 47.5468V22.8801C15.0008 21.9079 15.3873 20.9756 16.0748 20.2882C16.7623 19.6007 17.6945 19.2141 18.6667 19.2134H35.3334C36.3056 19.2141 37.2379 19.6007 37.9253 20.2882C38.6128 20.9756 38.9994 21.9079 39.0001 22.8801V30.2134C39.0001 30.4787 38.8947 30.733 38.7072 30.9205C38.5196 31.1081 38.2653 31.2134 38.0001 31.2134H17.0001V47.5468C17.0001 48.4654 17.7481 49.2134 18.6667 49.2134H28.6801C28.9453 49.2134 29.1996 49.3188 29.3872 49.5063C29.5747 49.6939 29.6801 49.9482 29.6801 50.2134C29.6801 50.4787 29.5747 50.733 29.3872 50.9205C29.1996 51.1081 28.9453 51.2134 28.6801 51.2134ZM17.0001 29.2134H37.0001V22.8801C37.0001 21.9614 36.2521 21.2134 35.3334 21.2134H18.6667C17.7481 21.2134 17.0001 21.9614 17.0001 22.8801V29.2134Z" fill="url(#paint4_linear_1_3477)"/>
<path d="M26.2267 41.2134H16.6667C16.4015 41.2134 16.1472 41.1081 15.9596 40.9205C15.7721 40.733 15.6667 40.4787 15.6667 40.2134C15.6667 39.9482 15.7721 39.6939 15.9596 39.5063C16.1472 39.3188 16.4015 39.2134 16.6667 39.2134H26.2267C26.492 39.2134 26.7463 39.3188 26.9339 39.5063C27.1214 39.6939 27.2267 39.9482 27.2267 40.2134C27.2267 40.4787 27.1214 40.733 26.9339 40.9205C26.7463 41.1081 26.492 41.2134 26.2267 41.2134Z" fill="url(#paint5_linear_1_3477)"/>
<path d="M32.3334 27.2134C33.0698 27.2134 33.6667 26.6165 33.6667 25.8801C33.6667 25.1437 33.0698 24.5468 32.3334 24.5468C31.597 24.5468 31.0001 25.1437 31.0001 25.8801C31.0001 26.6165 31.597 27.2134 32.3334 27.2134Z" fill="url(#paint6_linear_1_3477)"/>
<path d="M27.0001 27.2134C27.7365 27.2134 28.3334 26.6165 28.3334 25.8801C28.3334 25.1437 27.7365 24.5468 27.0001 24.5468C26.2637 24.5468 25.6667 25.1437 25.6667 25.8801C25.6667 26.6165 26.2637 27.2134 27.0001 27.2134Z" fill="url(#paint7_linear_1_3477)"/>
<path d="M21.6667 27.2134C22.4031 27.2134 23 26.6165 23 25.8801C23 25.1437 22.4031 24.5468 21.6667 24.5468C20.9303 24.5468 20.3334 25.1437 20.3334 25.8801C20.3334 26.6165 20.9303 27.2134 21.6667 27.2134Z" fill="url(#paint8_linear_1_3477)"/>
</g>
<defs>
<linearGradient id="paint0_linear_1_3477" x1="0.683534" y1="21.831" x2="61.9219" y2="52.1543" gradientUnits="userSpaceOnUse">
<stop stop-color="#AB3FFF"/>
<stop offset="1" stop-color="#2A0044"/>
</linearGradient>
<linearGradient id="paint1_linear_1_3477" x1="38.3347" y1="42.2125" x2="38.3347" y2="47.2135" gradientUnits="userSpaceOnUse">
<stop stop-color="#9A37E6"/>
<stop offset="1" stop-color="#370757"/>
</linearGradient>
<linearGradient id="paint2_linear_1_3477" x1="38.3334" y1="37.8801" x2="38.3334" y2="46.5468" gradientUnits="userSpaceOnUse">
<stop stop-color="#9A37E6"/>
<stop offset="1" stop-color="#370757"/>
</linearGradient>
<linearGradient id="paint3_linear_1_3477" x1="38.3334" y1="33.8801" x2="38.3334" y2="51.2135" gradientUnits="userSpaceOnUse">
<stop stop-color="#9A37E6"/>
<stop offset="1" stop-color="#370757"/>
</linearGradient>
<linearGradient id="paint4_linear_1_3477" x1="27.0001" y1="19.2134" x2="27.0001" y2="51.2134" gradientUnits="userSpaceOnUse">
<stop stop-color="#9A37E6"/>
<stop offset="1" stop-color="#370757"/>
</linearGradient>
<linearGradient id="paint5_linear_1_3477" x1="21.4467" y1="39.2134" x2="21.4467" y2="41.2134" gradientUnits="userSpaceOnUse">
<stop stop-color="#9A37E6"/>
<stop offset="1" stop-color="#370757"/>
</linearGradient>
<linearGradient id="paint6_linear_1_3477" x1="32.3334" y1="24.5468" x2="32.3334" y2="27.2134" gradientUnits="userSpaceOnUse">
<stop stop-color="#9A37E6"/>
<stop offset="1" stop-color="#370757"/>
</linearGradient>
<linearGradient id="paint7_linear_1_3477" x1="27.0001" y1="24.5468" x2="27.0001" y2="27.2134" gradientUnits="userSpaceOnUse">
<stop stop-color="#9A37E6"/>
<stop offset="1" stop-color="#370757"/>
</linearGradient>
<linearGradient id="paint8_linear_1_3477" x1="21.6667" y1="24.5468" x2="21.6667" y2="27.2134" gradientUnits="userSpaceOnUse">
<stop stop-color="#9A37E6"/>
<stop offset="1" stop-color="#370757"/>
</linearGradient>
<clipPath id="clip0_1_3477">
<rect width="32" height="32" fill="white" transform="translate(15.0001 19.2134)"/>
</clipPath>
</defs>
</svg>
