<svg width="62" height="71" viewBox="0 0 62 71" fill="none" xmlns="http://www.w3.org/2000/svg">
<path d="M60.9988 48.0801C61.0015 48.2114 60.9997 48.3423 60.9932 48.4724C60.9055 50.4243 59.8735 52.2208 58.2259 53.2624L34.6285 68.1728C32.8359 69.3045 30.5651 69.3718 28.7217 68.3398L4.35453 54.7015C2.41793 53.6178 0.987164 51.5743 1.00009 49.5022V49.4962V22.1776C1.00009 22.1766 1.00009 22.1757 1.00009 22.1748C1.01486 20.0992 2.09762 18.1797 3.84868 17.1092L3.85791 17.1038L27.1008 2.53995C28.8824 1.45359 31.1134 1.4054 32.9282 2.42133L32.9337 2.4242L57.8539 16.1632C57.8548 16.1637 57.8557 16.1642 57.8566 16.1647C59.6594 17.1751 60.804 19.0984 60.8492 21.1937C60.8492 21.1959 60.8492 21.1982 60.8492 21.2004L60.9978 48.0666L60.9988 48.0734V48.0801Z" fill="#18181B" stroke="url(#paint0_linear_1_3447)" stroke-width="2"/>
<g clip-path="url(#clip0_1_3447)">
<path d="M31 19.3806H21.6667C19.0933 19.3806 17 21.4739 17 24.0472V46.7139C17 49.2872 19.0933 51.3806 21.6667 51.3806H23C23.368 51.3806 23.6667 51.0819 23.6667 50.7139C23.6667 50.3459 23.368 50.0472 23 50.0472H21.6667C19.8294 50.0472 18.3334 48.5512 18.3334 46.7139V24.0472C18.3334 22.2099 19.8294 20.7139 21.6667 20.7139H31C32.8373 20.7139 34.3333 22.2099 34.3333 24.0472V30.7139C34.3333 31.0819 34.632 31.3806 35 31.3806C35.368 31.3806 35.6667 31.0819 35.6667 30.7139V24.0472C35.6667 21.4739 33.5733 19.3806 31 19.3806Z" fill="url(#paint1_linear_1_3447)"/>
<path d="M47.0933 37.0272L42.08 31.5179C41.088 30.5259 39.472 30.5246 38.4707 31.5259C38.1534 31.8432 37.9374 32.2232 37.8254 32.6286C36.8281 31.8659 35.3894 31.9406 34.4707 32.8593C34.1649 33.1653 33.9423 33.5444 33.824 33.9606C32.8267 33.1979 31.388 33.2726 30.4707 34.1926C30.1706 34.492 29.9506 34.862 29.8307 35.2686L27.468 32.9059C26.476 31.9139 24.86 31.9126 23.8587 32.9139C22.8654 33.9059 22.8654 35.5219 23.8587 36.5152L32.936 45.5925L27.552 46.4378C26.0973 46.6458 25 47.9098 25 49.3805C25 50.4832 25.8973 51.3805 27 51.3805H39.572C41.5307 51.3805 43.372 50.6178 44.7573 49.2325L46.8546 47.1352C48.2387 45.7525 49 43.9125 49 41.9565C49 40.1298 48.3227 38.3792 47.0933 37.0272ZM45.912 46.1925L43.8147 48.2898C42.6814 49.4232 41.1747 50.0472 39.572 50.0472H27C26.632 50.0472 26.3333 49.7485 26.3333 49.3805C26.3333 48.5698 26.9386 47.8725 27.7493 47.7552L34.436 46.7045C34.684 46.6658 34.888 46.4912 34.9667 46.2525C35.044 46.0152 34.9814 45.7525 34.804 45.5752L24.8 35.5712C24.3267 35.0979 24.3267 34.3285 24.808 33.8472C25.0359 33.6199 25.3448 33.4923 25.6667 33.4925C25.9774 33.4925 26.288 33.6112 26.5254 33.8485L33.1961 40.5192C33.4561 40.7792 33.8788 40.7792 34.1388 40.5192C34.2634 40.3938 34.3334 40.2241 34.3334 40.0472C34.3334 39.8765 34.2681 39.7059 34.1388 39.5765L31.4148 36.8525C30.9414 36.3792 30.9414 35.6098 31.4228 35.1285C31.8948 34.6565 32.6668 34.6565 33.1388 35.1285L35.8628 37.8525C36.1228 38.1125 36.5454 38.1125 36.8054 37.8525C36.9348 37.7218 37.0001 37.5512 37.0001 37.3805C37.0001 37.2098 36.9348 37.0392 36.8108 36.9152L35.4201 35.5245C34.9468 35.0512 34.9468 34.2818 35.4281 33.8005C35.9001 33.3285 36.6721 33.3285 37.1441 33.8005L38.5348 35.1912L38.5361 35.1925L38.5374 35.1938L38.5388 35.1952L38.5401 35.1965H38.5414C38.5427 35.1965 38.5427 35.1978 38.5427 35.1978C38.804 35.4445 39.216 35.4405 39.472 35.1845C39.732 34.9245 39.732 34.5018 39.472 34.2418L39.4147 34.1845C39.3016 34.072 39.2119 33.9381 39.1508 33.7908C39.0896 33.6434 39.0584 33.4853 39.0587 33.3258C39.0587 33.0018 39.184 32.6978 39.4214 32.4605C39.8947 31.9885 40.6641 31.9898 41.1161 32.4378L46.1081 37.9245C47.1121 39.0298 47.6668 40.4618 47.6668 41.9565C47.6667 43.5565 47.044 45.0605 45.912 46.1925Z" fill="url(#paint2_linear_1_3447)"/>
</g>
<defs>
<linearGradient id="paint0_linear_1_3447" x1="0.683473" y1="21.9981" x2="61.9218" y2="52.3214" gradientUnits="userSpaceOnUse">
<stop stop-color="#3FD7FF"/>
<stop offset="1" stop-color="#003644"/>
</linearGradient>
<linearGradient id="paint1_linear_1_3447" x1="26.3333" y1="19.3806" x2="26.3333" y2="51.3806" gradientUnits="userSpaceOnUse">
<stop stop-color="#3BCDF3"/>
<stop offset="1" stop-color="#074859"/>
</linearGradient>
<linearGradient id="paint2_linear_1_3447" x1="36.0569" y1="30.7744" x2="36.0569" y2="51.3805" gradientUnits="userSpaceOnUse">
<stop stop-color="#3BCDF3"/>
<stop offset="1" stop-color="#074859"/>
</linearGradient>
<clipPath id="clip0_1_3447">
<rect width="32" height="32" fill="white" transform="translate(17 19.3806)"/>
</clipPath>
</defs>
</svg>
