<svg width="62" height="71" viewBox="0 0 62 71" fill="none" xmlns="http://www.w3.org/2000/svg">
<path d="M60.9988 48.0801C61.0016 48.2114 60.9997 48.3423 60.9933 48.4724C60.9056 50.4243 59.8736 52.2208 58.2259 53.2624L34.6285 68.1728C32.8359 69.3045 30.5652 69.3718 28.7218 68.3398L4.35459 54.7015C2.41799 53.6178 0.987225 51.5743 1.00015 49.5022V49.4962V22.1776C1.00015 22.1766 1.00015 22.1757 1.00015 22.1748C1.01492 20.0992 2.09768 18.1797 3.84874 17.1092L3.85797 17.1038L27.1009 2.53995C28.8824 1.45359 31.1135 1.4054 32.9282 2.42133L32.9338 2.4242L57.8539 16.1632C57.8548 16.1637 57.8558 16.1642 57.8567 16.1647C59.6595 17.1751 60.8041 19.0984 60.8493 21.1937C60.8493 21.1959 60.8493 21.1982 60.8493 21.2004L60.9979 48.0666L60.9988 48.0734V48.0801Z" fill="#18181B" stroke="url(#paint0_linear_1_3466)" stroke-width="2"/>
<g clip-path="url(#clip0_1_3466)">
<path d="M46.0001 39.3803C45.4481 39.3803 45.0001 39.8283 45.0001 40.3803V47.3803H17.0001V35.3803H28.0001C28.5521 35.3803 29.0001 34.9323 29.0001 34.3803C29.0001 33.8283 28.5521 33.3803 28.0001 33.3803H17.0001V29.3803H28.0001C28.5521 29.3803 29.0001 28.9323 29.0001 28.3803C29.0001 27.8283 28.5521 27.3803 28.0001 27.3803H17.0001C15.8961 27.3803 15.0001 28.2763 15.0001 29.3803V47.3803C15.0001 48.4843 15.8961 49.3803 17.0001 49.3803H45.0001C46.1041 49.3803 47.0001 48.4843 47.0001 47.3803V40.3803C47.0001 39.8283 46.5521 39.3803 46.0001 39.3803Z" fill="url(#paint1_linear_1_3466)"/>
<path d="M24.0001 39.3803H20.0001C19.4481 39.3803 19.0001 39.8283 19.0001 40.3803C19.0001 40.9323 19.4481 41.3803 20.0001 41.3803H24.0001C24.5521 41.3803 25.0001 40.9323 25.0001 40.3803C25.0001 39.8283 24.5521 39.3803 24.0001 39.3803ZM46.3941 24.4603L39.3941 21.4603C39.269 21.4078 39.1347 21.3808 38.9991 21.3808C38.8634 21.3808 38.7291 21.4078 38.6041 21.4603L31.6041 24.4603C31.4246 24.538 31.2718 24.6665 31.1645 24.83C31.0572 24.9935 31 25.1847 31.0001 25.3803V29.3803C31.0001 34.8823 33.0341 38.0983 38.5021 41.2483C38.6561 41.3363 38.8281 41.3803 39.0001 41.3803C39.1721 41.3803 39.3441 41.3363 39.4981 41.2483C44.9661 38.1063 47.0001 34.8903 47.0001 29.3803V25.3803C47.0001 24.9803 46.7621 24.6183 46.3941 24.4603ZM45.0001 29.3803C45.0001 33.9983 43.4721 36.5403 39.0001 39.2203C34.5281 36.5343 33.0001 33.9923 33.0001 29.3803V26.0403L39.0001 23.4683L45.0001 26.0403V29.3803Z" fill="url(#paint2_linear_1_3466)"/>
<path d="M42.626 27.5983C42.196 27.2583 41.568 27.3243 41.22 27.7543L38.076 31.6863L36.832 29.8263C36.522 29.3663 35.9 29.2443 35.446 29.5483C34.988 29.8543 34.862 30.4763 35.168 30.9343L37.168 33.9343C37.346 34.2003 37.638 34.3643 37.958 34.3803H38C38.302 34.3803 38.59 34.2443 38.782 34.0043L42.782 29.0043C43.126 28.5723 43.058 27.9443 42.626 27.5983Z" fill="url(#paint3_linear_1_3466)"/>
</g>
<defs>
<linearGradient id="paint0_linear_1_3466" x1="0.683534" y1="21.9981" x2="61.9219" y2="52.3214" gradientUnits="userSpaceOnUse">
<stop stop-color="#FF903F"/>
<stop offset="1" stop-color="#442500"/>
</linearGradient>
<linearGradient id="paint1_linear_1_3466" x1="31.0001" y1="27.3803" x2="31.0001" y2="49.3803" gradientUnits="userSpaceOnUse">
<stop stop-color="#E88237"/>
<stop offset="1" stop-color="#562F06"/>
</linearGradient>
<linearGradient id="paint2_linear_1_3466" x1="33.0001" y1="21.3808" x2="33.0001" y2="41.3803" gradientUnits="userSpaceOnUse">
<stop stop-color="#E88237"/>
<stop offset="1" stop-color="#562F06"/>
</linearGradient>
<linearGradient id="paint3_linear_1_3466" x1="39.0009" y1="27.3816" x2="39.0009" y2="34.3803" gradientUnits="userSpaceOnUse">
<stop stop-color="#E88237"/>
<stop offset="1" stop-color="#562F06"/>
</linearGradient>
<clipPath id="clip0_1_3466">
<rect width="32" height="32" fill="white" transform="translate(15.0001 19.3806)"/>
</clipPath>
</defs>
</svg>
